<svg width="35" height="35" viewBox="0 0 35 35" fill="none" xmlns="http://www.w3.org/2000/svg">
<path d="M17.5 22.75C18.9175 22.75 20.125 22.225 21.1925 21.1925C22.225 20.125 22.75 18.9175 22.75 17.5C22.75 16.0825 22.225 14.875 21.1925 13.8075C20.125 12.775 18.9175 12.25 17.5 12.25C16.0825 12.25 14.875 12.775 13.8075 13.8075C12.775 14.875 12.25 16.0825 12.25 17.5C12.25 18.9175 12.775 20.125 13.8075 21.1925C14.875 22.225 16.0825 22.75 17.5 22.75ZM17.5 0C22.3125 0 26.425 1.75 29.8375 5.1625C33.25 8.575 35 12.6875 35 17.5V20.0375C35 21.7875 34.3875 23.275 33.25 24.5C32.025 25.6725 30.625 26.25 28.875 26.25C26.775 26.25 25.0425 25.375 23.73 23.625C21.98 25.375 19.915 26.25 17.5 26.25C15.1025 26.25 13.0375 25.375 11.305 23.695C9.625 21.9625 8.75 19.915 8.75 17.5C8.75 15.1025 9.625 13.0375 11.305 11.305C13.0375 9.625 15.1025 8.75 17.5 8.75C19.915 8.75 21.9625 9.625 23.695 11.305C25.375 13.0375 26.25 15.1025 26.25 17.5V20.0375C26.25 20.755 26.53 21.385 27.055 21.9275C27.58 22.47 28.1925 22.75 28.875 22.75C29.61 22.75 30.2225 22.47 30.7475 21.9275C31.2725 21.385 31.5 20.755 31.5 20.0375V17.5C31.5 13.6675 30.1525 10.3775 27.3875 7.6125C24.6225 4.8475 21.3325 3.5 17.5 3.5C13.6675 3.5 10.3775 4.8475 7.6125 7.6125C4.8475 10.3775 3.5 13.6675 3.5 17.5C3.5 21.3325 4.8475 24.6225 7.6125 27.3875C10.3775 30.1525 13.6675 31.5 17.5 31.5H26.25V35H17.5C12.6875 35 8.575 33.25 5.1625 29.8375C1.75 26.425 0 22.3125 0 17.5C0 12.6875 1.75 8.575 5.1625 5.1625C8.575 1.75 12.6875 0 17.5 0Z" fill="#FF6262"/>
</svg>
