<svg xmlns="http://www.w3.org/2000/svg" width="1100.027" height="638.518" viewBox="0 0 1100.027 638.518">
  <g id="logintiga" transform="translate(354.371 -180.109)">
    <path id="Path_4" data-name="Path 4" d="M585.8,410.1l3.118-4.314-3.161,5.382-.341-.6Z" fill="#3f3d56"/>
    <path id="Path_5" data-name="Path 5" d="M585.461,414.454l-3.118-4.314,3.161,5.381.342-.6Z" fill="#3f3d56"/>
    <path id="Path_7" data-name="Path 7" d="M715.879,410.1,719,405.783l-3.16,5.382-.342-.6Z" fill="#3f3d56"/>
    <path id="Path_8" data-name="Path 8" d="M715.538,414.454l-3.118-4.314,3.16,5.381.342-.6Z" fill="#3f3d56"/>
    <path id="Path_10" data-name="Path 10" d="M626.9,400.762l4.6-6.371-4.668,7.948-.505-.883Z" fill="#3f3d56"/>
    <path id="Path_11" data-name="Path 11" d="M626.4,407.2l-4.6-6.372,4.668,7.949.505-.883Z" fill="#3f3d56"/>
    <path id="Path_13" data-name="Path 13" d="M677.974,392.762l4.6-6.371-4.668,7.948-.5-.883Z" fill="#3f3d56"/>
    <path id="Path_14" data-name="Path 14" d="M677.469,399.2l-4.6-6.372,4.668,7.949.505-.883Z" fill="#3f3d56"/>
    <path id="Path_16" data-name="Path 16" d="M545.5,392.762l4.6-6.371-4.668,7.948-.505-.883Z" fill="#3f3d56"/>
    <path id="Path_17" data-name="Path 17" d="M545,399.2l-4.605-6.372,4.668,7.949.5-.883Z" fill="#3f3d56"/>
    <g id="Group_3" data-name="Group 3" transform="matrix(0.946, 0.326, -0.326, 0.946, -662.057, -229.011)">
      <path id="Path_1" data-name="Path 1" d="M721.528,375.356a2.659,2.659,0,0,0-2.656,2.656v182.36a2.659,2.659,0,0,0,2.656,2.656H975.585a2.659,2.659,0,0,0,2.656-2.656V378.012a2.659,2.659,0,0,0-2.656-2.656Z" transform="translate(-221.758 -64.379)" fill="#e6e6e6"/>
      <path id="Path_2" data-name="Path 2" d="M961.555,391.666v129.6a3.261,3.261,0,0,1-3.259,3.26h-220a2.321,2.321,0,0,1-.46-.04,3.256,3.256,0,0,1-2.8-3.22v-129.6a3.26,3.26,0,0,1,3.259-3.26h220a3.26,3.26,0,0,1,3.26,3.259Z" transform="translate(-221.758 -64.379)" fill="#fff"/>
      <circle id="Ellipse_1" data-name="Ellipse 1" cx="11.819" cy="11.819" r="11.819" transform="translate(682.379 359.697)" fill="#ff6584"/>
      <circle id="Ellipse_2" data-name="Ellipse 2" cx="3.897" cy="3.897" r="3.897" transform="translate(500.808 313.633)" fill="#3f3d56"/>
      <circle id="Ellipse_3" data-name="Ellipse 3" cx="3.897" cy="3.897" r="3.897" transform="translate(744.475 313.633)" fill="#3f3d56"/>
      <circle id="Ellipse_4" data-name="Ellipse 4" cx="3.897" cy="3.897" r="3.897" transform="translate(500.808 488.2)" fill="#3f3d56"/>
      <circle id="Ellipse_5" data-name="Ellipse 5" cx="3.897" cy="3.897" r="3.897" transform="translate(744.475 488.2)" fill="#3f3d56"/>
      <circle id="Ellipse_6" data-name="Ellipse 6" cx="14.18" cy="14.18" r="14.18" transform="translate(571.58 389.553)" fill="#63ffed"/>
      <path id="Path_3" data-name="Path 3" d="M587.127,446.444h-2.9l1.324-44.847Z" fill="#3f3d56"/>
      <circle id="Ellipse_7" data-name="Ellipse 7" cx="14.18" cy="14.18" r="14.18" transform="translate(701.657 389.553)" fill="#63ffed"/>
      <path id="Path_6" data-name="Path 6" d="M717.2,446.444h-2.9l1.324-44.847Z" fill="#3f3d56"/>
      <circle id="Ellipse_8" data-name="Ellipse 8" cx="20.943" cy="20.943" r="20.943" transform="translate(605.895 370.42)" fill="#63ffed"/>
      <path id="Path_9" data-name="Path 9" d="M628.856,454.444h-4.289l1.955-66.235Z" fill="#3f3d56"/>
      <circle id="Ellipse_9" data-name="Ellipse 9" cx="20.943" cy="20.943" r="20.943" transform="translate(656.967 362.42)" fill="#63ffed"/>
      <path id="Path_12" data-name="Path 12" d="M679.929,446.444H675.64l1.955-66.235Z" fill="#3f3d56"/>
      <circle id="Ellipse_10" data-name="Ellipse 10" cx="20.943" cy="20.943" r="20.943" transform="translate(524.497 362.42)" fill="#63ffed"/>
      <path id="Path_15" data-name="Path 15" d="M547.459,446.444h-4.29l1.956-66.235Z" fill="#3f3d56"/>
      <path id="Path_18" data-name="Path 18" d="M849.765,524.526H738.295a2.321,2.321,0,0,1-.46-.04,3.256,3.256,0,0,1-2.8-3.22v-27.83a189.753,189.753,0,0,1,31.74-2.58c39.57,0,72.67,11.34,80.97,26.52A15.251,15.251,0,0,1,849.765,524.526Z" transform="translate(-221.758 -64.379)" fill="#3f3d56"/>
      <path id="Path_19" data-name="Path 19" d="M961.555,514.956v6.31a3.261,3.261,0,0,1-3.259,3.26H834.965a62.864,62.864,0,0,1,12.78-7.15c15.11-6.48,36.42-10.52,60.03-10.52C928.295,506.856,947.065,509.9,961.555,514.956Z" transform="translate(-221.758 -64.379)" fill="#3f3d56"/>
    </g>
    <g id="Group_1" data-name="Group 1" transform="translate(-606.842 290.572) rotate(21)">
      <path id="Path_20" data-name="Path 20" d="M862.882,64.379a2.648,2.648,0,0,0-1.244.312L637.338,184a2.661,2.661,0,0,0-1.1,3.593l85.64,161a2.66,2.66,0,0,0,3.594,1.1l224.3-119.311a2.66,2.66,0,0,0,1.1-3.593l-85.641-161a2.638,2.638,0,0,0-1.569-1.293A2.669,2.669,0,0,0,862.882,64.379Z" transform="translate(-221.758 -64.379)" fill="#e6e6e6"/>
      <path id="Path_21" data-name="Path 21" d="M856.913,85.679l60.861,114.416a3.262,3.262,0,0,1-1.348,4.413L722.2,307.822a2.754,2.754,0,0,1-.43.187,3.26,3.26,0,0,1-3.983-1.536l-60.86-114.416a3.262,3.262,0,0,1,1.348-4.413L852.5,84.33a3.262,3.262,0,0,1,4.413,1.348Z" transform="translate(-221.758 -64.379)" fill="#fff"/>
      <circle id="Ellipse_11" data-name="Ellipse 11" cx="28.624" cy="28.624" r="28.624" transform="translate(476.714 112.89)" fill="#ff6584"/>
      <path id="Path_22" data-name="Path 22" d="M847.77,241.616,723.795,307.561a2.866,2.866,0,0,1-.483.21l4.61-132.752a4.65,4.65,0,0,1,7.146-3.8l75.605,47.225,3.62,2.258Z" transform="translate(-221.758 -64.379)" fill="#3f3d56"/>
      <path id="Path_23" data-name="Path 23" d="M626.012,177.237l-42.328,22.515,4.724-41.234.339-2.97.169-1.485,3.62,2.259Z" opacity="0.2"/>
      <path id="Path_24" data-name="Path 24" d="M916.8,204.9,809.57,261.935l4.724-41.234.339-2.97L820.787,164c.4-3.522,4.589-5.954,7.874-4.812a5.538,5.538,0,0,1,.648.279Z" transform="translate(-221.758 -64.379)" fill="#3f3d56"/>
      <circle id="Ellipse_12" data-name="Ellipse 12" cx="3.897" cy="3.897" r="3.897" transform="translate(419.119 119.194)" fill="#3f3d56"/>
      <circle id="Ellipse_13" data-name="Ellipse 13" cx="3.897" cy="3.897" r="3.897" transform="translate(634.244 4.763)" fill="#3f3d56"/>
      <circle id="Ellipse_14" data-name="Ellipse 14" cx="3.897" cy="3.897" r="3.897" transform="translate(501.099 273.314)" fill="#3f3d56"/>
      <circle id="Ellipse_15" data-name="Ellipse 15" cx="3.897" cy="3.897" r="3.897" transform="translate(716.225 158.883)" fill="#3f3d56"/>
    </g>
    <path id="Path_25" data-name="Path 25" d="M917.193,835.532a2.66,2.66,0,0,0,3.25-1.885l46.881-176.231a2.657,2.657,0,0,0-1.885-3.25l-245.52-65.312a2.658,2.658,0,0,0-3.25,1.885L669.79,766.969a2.656,2.656,0,0,0,1.885,3.25Z" transform="translate(-221.758 -64.379)" fill="#e6e6e6"/>
    <path id="Path_26" data-name="Path 26" d="M947.687,666.32,914.37,791.565a3.261,3.261,0,0,1-3.988,2.312L697.776,737.32a2.322,2.322,0,0,1-.434-.157,3.256,3.256,0,0,1-1.878-3.832l33.317-125.244a3.261,3.261,0,0,1,3.989-2.312l212.606,56.557a3.26,3.26,0,0,1,2.312,3.988Z" transform="translate(-221.758 -64.379)" fill="#fff"/>
    <path id="Path_27" data-name="Path 27" d="M919.1,773.773l-4.733,17.791a3.261,3.261,0,0,1-3.988,2.313L697.776,737.32a2.322,2.322,0,0,1-.434-.157,3.256,3.256,0,0,1-1.878-3.832L700.2,715.54Z" transform="translate(-221.758 -64.379)" fill="#3f3d56"/>
    <rect id="Rectangle_1" data-name="Rectangle 1" width="35" height="4" transform="translate(569.577 686.793) rotate(14.897)" fill="#ccc"/>
    <rect id="Rectangle_2" data-name="Rectangle 2" width="35" height="4" transform="translate(491.782 666.098) rotate(14.897)" fill="#ccc"/>
    <rect id="Rectangle_3" data-name="Rectangle 3" width="35" height="4" transform="translate(647.372 707.488) rotate(14.897)" fill="#ccc"/>
    <circle id="Ellipse_16" data-name="Ellipse 16" cx="3.897" cy="3.897" r="3.897" transform="translate(497.35 528.179)" fill="#3f3d56"/>
    <circle id="Ellipse_17" data-name="Ellipse 17" cx="3.897" cy="3.897" r="3.897" transform="translate(732.827 590.82)" fill="#3f3d56"/>
    <circle id="Ellipse_18" data-name="Ellipse 18" cx="3.897" cy="3.897" r="3.897" transform="translate(452.473 696.879)" fill="#3f3d56"/>
    <circle id="Ellipse_19" data-name="Ellipse 19" cx="3.897" cy="3.897" r="3.897" transform="translate(687.95 759.52)" fill="#3f3d56"/>
    <rect id="Rectangle_4" data-name="Rectangle 4" width="19.453" height="3.088" transform="translate(663.858 706.289) rotate(-165.073)" fill="#3f3d56"/>
    <path id="Path_28" data-name="Path 28" d="M731.516,727.186l3.64,1.929,147.386,39.291,2.147-2.736a32.257,32.257,0,0,0,6.776-16.246c.5-4.434.036-9.1-3.087-11.9l5.049-45.309-81.514-21.84L773.59,687.434s-14.813-4.227-25.576,3.689a24.45,24.45,0,0,0-8.4,11.7l-1.712,5.152Z" transform="translate(-221.758 -64.379)" fill="#63ffed"/>
    <circle id="Ellipse_20" data-name="Ellipse 20" cx="18.835" cy="18.835" r="18.835" transform="translate(523.492 651.856)" fill="#3f3d56"/>
    <circle id="Ellipse_21" data-name="Ellipse 21" cx="9.913" cy="9.913" r="9.913" transform="translate(532.414 660.778)" fill="#ccc"/>
    <circle id="Ellipse_22" data-name="Ellipse 22" cx="18.835" cy="18.835" r="18.835" transform="translate(613.296 675.797)" fill="#3f3d56"/>
    <circle id="Ellipse_23" data-name="Ellipse 23" cx="9.913" cy="9.913" r="9.913" transform="translate(622.218 684.719)" fill="#ccc"/>
    <path id="Path_29" data-name="Path 29" d="M565.159,623.415l44.026,11.732,5.375,1.43L623.634,639l.176-.663,2.129-7.978,2.39-8.959-6.037-1.606-5.374-1.436-9.519-2.539-5.375-1.43-10.99-2.93Z" fill="#fff"/>
    <path id="Path_30" data-name="Path 30" d="M630.8,640.91l23.268,6.2,1.221-4.565,2.122-7.979,1.352-5.055-3.407-.907-5.374-1.436-14.493-3.862Z" fill="#fff"/>
    <rect id="Rectangle_5" data-name="Rectangle 5" width="3.088" height="5.867" transform="translate(618.625 657.801) rotate(-165.073)" fill="#3f3d56"/>
    <rect id="Rectangle_6" data-name="Rectangle 6" width="3.088" height="5.867" transform="translate(575.743 631.664) rotate(104.927)" fill="#3f3d56"/>
    <path id="Path_31" data-name="Path 31" d="M790.043,683.236h.34a6.453,6.453,0,0,1,6.453,6.453h0a6.453,6.453,0,0,1-6.453,6.453h-.34Z" transform="translate(1160.687 1496.109) rotate(-165.073)" fill="#3f3d56"/>
    <path id="Path_32" data-name="Path 32" d="M737.9,707.973a9.975,9.975,0,0,0,10.116-16.851,24.45,24.45,0,0,0-8.4,11.7Z" transform="translate(-221.758 -64.379)" fill="#3f3d56"/>
    <path id="Path_33" data-name="Path 33" d="M616.918,618.356l6.892,19.979,2.129-7.978-3.647-10.565Z" fill="#f2f2f2"/>
    <path id="Path_34" data-name="Path 34" d="M649.978,627.171l5.307,15.377,2.122-7.979-2.055-5.962Z" fill="#f2f2f2"/>
    <path id="Path_35" data-name="Path 35" d="M602.024,614.387l7.161,20.76,5.375,1.43-7.161-20.76Z" fill="#f2f2f2"/>
    <circle id="Ellipse_24" data-name="Ellipse 24" cx="12" cy="12" r="12" transform="translate(28.017 286.313)" fill="#63ffed"/>
    <path id="Path_36" data-name="Path 36" d="M266.84,351.825a11.984,11.984,0,0,1-13.13,19.734,11.99,11.99,0,1,0,13.13-19.734Z" transform="translate(-221.758 -64.379)" opacity="0.2"/>
    <ellipse id="Ellipse_25" data-name="Ellipse 25" cx="29.5" cy="12" rx="29.5" ry="12" transform="translate(319.017 299.313)" fill="#3f3d56"/>
    <path id="Path_37" data-name="Path 37" d="M570.275,363.692q-1.519,0-3,.061c14.883.612,26.5,5.723,26.5,11.939s-11.617,11.327-26.5,11.939q1.48.061,3,.061c16.292,0,29.5-5.373,29.5-12S586.567,363.692,570.275,363.692Z" transform="translate(-221.758 -64.379)" opacity="0.2"/>
    <path id="Path_38" data-name="Path 38" d="M608.775,375.692h-148v-16a3,3,0,0,0-3-3h-82a3,3,0,0,0-3,3v16h-86v-10a3,3,0,0,0-3-3h-44a3,3,0,0,0-3,3v10h-12a3,3,0,0,0-3,3v197a3,3,0,0,0,3,3h384a3,3,0,0,0,3-3v-197a3,3,0,0,0-3-3Z" transform="translate(-221.758 -64.379)" fill="#3f3d56"/>
    <path id="Path_39" data-name="Path 39" d="M608.758,564h-384a3,3,0,0,1-3-3v14a3,3,0,0,0,3,3h384a3,3,0,0,0,3-3V561a3,3,0,0,1-3,3Z" transform="translate(-221.758 -64.379)" opacity="0.2"/>
    <rect id="Rectangle_7" data-name="Rectangle 7" width="390" height="38" transform="translate(0.017 403.313)" opacity="0.2"/>
    <rect id="Rectangle_8" data-name="Rectangle 8" width="390" height="38" transform="translate(0.017 384.313)" opacity="0.2"/>
    <rect id="Rectangle_9" data-name="Rectangle 9" width="390" height="38" transform="translate(0.017 393.313)" fill="#63ffed"/>
    <circle id="Ellipse_26" data-name="Ellipse 26" cx="76" cy="76" r="76" transform="translate(119.017 336.313)" fill="#63ffed"/>
    <path id="Path_40" data-name="Path 40" d="M475.315,428.228a76,76,0,0,1-124.081,86.928,76,76,0,1,0,124.081-86.928Z" transform="translate(-221.758 -64.379)" opacity="0.2"/>
    <circle id="Ellipse_27" data-name="Ellipse 27" cx="56.558" cy="56.558" r="56.558" transform="translate(138.459 355.755)" fill="#3f3d56"/>
    <path id="Path_41" data-name="Path 41" d="M460.775,476.692a43.723,43.723,0,0,1-3.57,17.37,43.134,43.134,0,0,1-4.75,8.37,44,44,0,1,1-61.42-61.42,43.125,43.125,0,0,1,8.37-4.75,44.005,44.005,0,0,1,61.37,40.43Z" transform="translate(-221.758 -64.379)" fill="#fff"/>
    <path id="Path_42" data-name="Path 42" d="M460.3,470.282a43.928,43.928,0,0,0-16.448-28.265,44,44,0,0,1,3.348,41.045,43.132,43.132,0,0,1-4.75,8.37,43.973,43.973,0,0,1-62.769,8.919,43.978,43.978,0,0,0,72.769,2.081,43.131,43.131,0,0,0,4.75-8.37,44.018,44.018,0,0,0,3.1-23.78Z" transform="translate(-221.758 -64.379)" opacity="0.2"/>
    <g id="Group_2" data-name="Group 2" transform="matrix(0.97, 0.242, -0.242, 0.97, 37.534, 79.912)">
      <path id="Path_20-2" data-name="Path 20" d="M862.882,64.379a2.648,2.648,0,0,0-1.244.312L637.338,184a2.661,2.661,0,0,0-1.1,3.593l85.64,161a2.66,2.66,0,0,0,3.594,1.1l224.3-119.311a2.66,2.66,0,0,0,1.1-3.593l-85.641-161a2.638,2.638,0,0,0-1.569-1.293A2.669,2.669,0,0,0,862.882,64.379Z" transform="translate(-221.758 -64.379)" fill="#e6e6e6"/>
      <path id="Path_21-2" data-name="Path 21" d="M856.913,85.679l60.861,114.416a3.262,3.262,0,0,1-1.348,4.413L722.2,307.822a2.754,2.754,0,0,1-.43.187,3.26,3.26,0,0,1-3.983-1.536l-60.86-114.416a3.262,3.262,0,0,1,1.348-4.413L852.5,84.33a3.262,3.262,0,0,1,4.413,1.348Z" transform="translate(-221.758 -64.379)" fill="#fff"/>
      <circle id="Ellipse_11-2" data-name="Ellipse 11" cx="28.624" cy="28.624" r="28.624" transform="translate(476.714 112.89)" fill="#ff6584"/>
      <path id="Path_22-2" data-name="Path 22" d="M847.77,241.616,723.795,307.561a2.866,2.866,0,0,1-.483.21l4.61-132.752a4.65,4.65,0,0,1,7.146-3.8l75.605,47.225,3.62,2.258Z" transform="translate(-221.758 -64.379)" fill="#3f3d56"/>
      <path id="Path_23-2" data-name="Path 23" d="M626.012,177.237l-42.328,22.515,4.724-41.234.339-2.97.169-1.485,3.62,2.259Z" opacity="0.2"/>
      <path id="Path_24-2" data-name="Path 24" d="M916.8,204.9,809.57,261.935l4.724-41.234.339-2.97L820.787,164c.4-3.522,4.589-5.954,7.874-4.812a5.538,5.538,0,0,1,.648.279Z" transform="translate(-221.758 -64.379)" fill="#3f3d56"/>
      <circle id="Ellipse_12-2" data-name="Ellipse 12" cx="3.897" cy="3.897" r="3.897" transform="translate(419.119 119.194)" fill="#3f3d56"/>
      <circle id="Ellipse_13-2" data-name="Ellipse 13" cx="3.897" cy="3.897" r="3.897" transform="translate(634.244 4.763)" fill="#3f3d56"/>
      <circle id="Ellipse_14-2" data-name="Ellipse 14" cx="3.897" cy="3.897" r="3.897" transform="translate(501.099 273.314)" fill="#3f3d56"/>
      <circle id="Ellipse_15-2" data-name="Ellipse 15" cx="3.897" cy="3.897" r="3.897" transform="translate(716.225 158.883)" fill="#3f3d56"/>
    </g>
  </g>
</svg>
